<?xml version="1.0" encoding="utf-8"?>
<!-- Generator: Adobe Illustrator 23.0.2, SVG Export Plug-In . SVG Version: 6.00 Build 0)  -->
<svg version="1.1" id="レイヤー_1" xmlns="http://www.w3.org/2000/svg" xmlns:xlink="http://www.w3.org/1999/xlink" x="0px"
	 y="0px" viewBox="0 0 1280 291.44" style="enable-background:new 0 0 1280 291.44;" xml:space="preserve">
<style type="text/css">
	.st0{display:none;fill:#429DC7;}
	.st1{display:none;fill:#FEFEFE;}
	.st2{fill:#FFFFFF;}
</style>
<path class="st0" d="M644.25-234.15c-3.49-3.15-6.3-5.48-8.87-8.05c-20.02-20-40.02-40.02-59.98-60.08
	c-4.2-4.22-8.21-8.62-12.29-12.95c-0.86-0.91-0.76-8.58,0.3-9.44c2.5-2.03,4.91-4.57,7.81-5.57c2.86-0.98,6.02-0.76,8.93,1.98
	c19.03,17.94,36.94,37,55.91,54.98c14.87,14.09,29.09,28.8,43.7,43.13c5.39,5.28,4.68,15.74-1.14,20.59
	c-1.27,1.06-2.56,1.01-3.95,1.02c-7.96,0.01-15.93,0.18-23.89-0.08c-3.48-0.12-4.53,0.74-4.51,4.38
	c0.16,29.15,0.09,58.31,0.09,87.47c0,4.93-3.99,8.92-8.92,8.92c-49.06,0-98.12,0-147.19,0c-5.68,0-9.43-3.71-9.43-9.33
	c0-33.7,0-67.41,0-101.11c0-8.79,7.66-16.52,16.56-16.7c0.02,0,0.04,0,0.06,0c2.39-0.05,3.51-2.96,1.76-4.59
	c-1.44-1.34-2.81-2.61-4.23-3.84c-11.47-9.99-22.34-20.6-33.07-31.36c-7.31-7.34-16.77-14.53-24.13-21.83
	c-2.01-1.99-3.42-2.96-6.08-0.24c-14.51,14.85-27.4,29.32-41.89,44.19c-3.86,3.96-7.66,7.98-11.66,12.06
	c-2.06,2.1-5.36,6.27,1.87,6.27l0.07,0.01c7.97,0,9.42,3.95,9.42,11.09c0,2.13,0.03,4.27-0.01,6.4c-0.06,4.08-4.25,8.27-8.35,8.28
	c-14.08,0.03-28.16-0.15-42.23,0.1c-4.81,0.09-8.9-3.27-11.2-8.59c-1.59-3.69-0.39-8.13,2.76-11.41
	c21.64-22.53,43.26-45.08,64.87-67.64c10.21-10.66,20.34-21.39,30.58-32.02c4.29-4.45,9.58-4.57,14.28-0.51
	c1.61,1.39,3.13,2.9,4.64,4.39c18.34,18.03,36.37,36.39,55.11,53.99c13.88,13.03,26.64,27.22,41.13,39.59
	c5.23,4.46,4.87,10.21,4.45,15.99c-0.18,2.49-5.53,6.12-8.27,6.13c-9.1,0.02-18.2,0.1-27.3-0.05c-3.61-0.06-3.34,7.06-3.34,7.06
	l-0.13,62.52c0,0,0.35,5.66,3.53,5.65c35.41-0.08,70.82-0.1,106.23,0c3.08,0.01,3.73-0.95,3.72-3.85
	c-0.1-27.73-0.07-55.46-0.06-83.19c0-8.15,5.63-13.72,13.82-13.73C636.87-234.15,639.99-234.15,644.25-234.15z"/>
<g>
	<path class="st1" d="M582.36,157.19c0-30.71,0-61.42,0-92.13c0-4.87-1.75-6.61-6.59-6.63c-4.27-0.02-8.53-0.01-12.8,0
		c-5.54,0.01-7.35,1.81-7.35,7.32c-0.01,24.31-0.08,48.62,0.08,72.93c0.02,3.41-0.93,4.18-4.22,4.16c-25.31-0.14-50.61-0.14-75.92,0
		c-3.32,0.02-4.23-0.79-4.21-4.18c0.16-24.45,0.09-48.91,0.08-73.36c0-4.92-1.98-6.86-6.93-6.88c-3.84-0.02-7.71,0.33-11.51-0.08
		c-5.82-0.63-8.51,2.77-8.43,8.16c0.31,20.61,0.13,41.23,0.13,61.84c0,39.95,0,79.9,0,119.85c0,5.91,1.38,7.34,7.08,7.35
		c4.12,0.01,8.25,0,12.37,0c5.93-0.01,7.29-1.33,7.29-7.14c0-26.02,0.06-52.04-0.07-78.05c-0.02-3.5,0.47-4.84,4.51-4.8
		c25.16,0.23,50.33,0.19,75.49,0.03c3.64-0.02,4.37,1.07,4.35,4.52c-0.15,26.3-0.09,52.6-0.08,78.91c0,4.89,1.67,6.52,6.6,6.54
		c4.41,0.02,8.81,0.01,13.22,0c5.47-0.01,6.91-1.48,6.91-7.09C582.36,218.04,582.36,187.61,582.36,157.19z"/>
	<g>
		<path class="st2" d="M1013.65,166.19c7.97-15.9,42.86-85.32,52.54-104.73c1.07-2.14,2.19-3.18,4.8-3.11
			c7.67,0.21,15.35,0.05,23.03,0.08c4.5,0.02,6.3,1.87,6.3,6.49c0.01,61.43,0.01,122.85,0,184.28c0,4.62-1.73,6.32-6.37,6.34
			c-4.55,0.02-9.1,0.02-13.65,0c-5.19-0.02-6.71-1.56-6.71-6.86c0-47.49,0-94.98,0-143c-1.97,1.59-33.24,62.77-48.02,91.53
			c-1.15,2.24-2.43,2.93-4.88,2.93c-6.22,0-8.38,0.02-14.5,0.02c-2.57,0-3.79-0.9-4.89-3.03c-14.8-28.9-46.1-89.62-47.75-91.07
			c0,1.4,0,96.05,0,141.98c0,6.23-1.25,7.51-7.34,7.52c-4.12,0-8.25,0.01-12.37,0c-5.52-0.01-7.03-1.49-7.03-6.97
			c0-49.34,0-98.68,0-148.02c0-11.8-0.01-23.6,0.01-35.41c0.01-4.59,2.1-6.71,6.66-6.72c7.25-0.03,14.51,0.12,21.75-0.08
			c2.55-0.07,3.74,0.87,4.84,3.04C977.03,94.75,1012.57,164.16,1013.65,166.19z"/>
		<path class="st2" d="M779.79,220.33c7.99-36.04,15.75-70.93,23.44-105.84c1.84-8.36,1.75-8.38,10.21-8.38
			c6.68,0,13.38,0.23,20.04-0.1c3.19-0.16,4.01,1.12,4.61,3.84c8.03,36.43,16.14,72.83,24.3,109.5
			c1.97-1.62,18.28-75.14,26.22-109.84c0.62-2.7,1.69-3.6,4.49-3.48c5.53,0.25,11.09,0.06,16.63,0.08c5.4,0.02,7.07,2.23,5.67,7.56
			c-5.62,21.39-29.89,112.94-36.19,137.37c-0.9,3.49-2.29,4.65-5.91,4.5c-7.81-0.31-15.64-0.22-23.45-0.02
			c-2.55,0.07-3.39-0.86-3.92-3.16c-7.95-34.99-24.7-107.36-25.33-109.53c-3.07,13.64-19.25,85.84-24.42,109.25
			c-0.51,2.32-1.22,3.53-4.05,3.45c-8.38-0.24-16.78-0.19-25.16-0.02c-2.34,0.05-3.15-0.85-3.7-2.91
			c-12.43-46.57-24.91-93.13-37.36-139.7c-1.07-4.01,1.21-6.76,5.51-6.78c5.69-0.03,10.81-0.08,17.06-0.08
			c3.06-0.13,4.32,0.73,5.06,3.87C761.74,145.14,779.13,217.94,779.79,220.33z"/>
		<path class="st2" d="M583.36,248.46c0,5.61-1.44,7.08-6.91,7.09c-4.41,0.01-8.81,0.01-13.22,0c-4.94-0.02-6.6-1.65-6.6-6.54
			c-0.01-26.3-0.07-52.6,0.08-78.91c0.02-3.45-0.7-4.55-4.35-4.52c-25.16,0.17-50.33,0.2-75.49-0.03c-4.04-0.04-4.53,1.31-4.51,4.8
			c0.14,26.02,0.08,52.03,0.07,78.05c0,5.81-1.36,7.13-7.29,7.14c-4.12,0-8.25,0.01-12.37,0c-5.71-0.01-7.08-1.43-7.08-7.35
			c0-39.95,0.19-161.09-0.13-181.7c-0.08-5.4,1.68-8.16,7.33-8.16c0,0,8.77,0.06,12.61,0.08c4.95,0.02,6.93,1.96,6.93,6.88
			c0.01,24.45,0.08,48.91-0.08,73.36c-0.02,3.39,0.9,4.19,4.21,4.18c25.31-0.14,50.61-0.14,75.92,0c3.3,0.02,4.25-0.76,4.22-4.16
			c-0.16-24.31-0.09-48.62-0.08-72.93c0-5.51,1.81-7.31,7.35-7.32c4.27-0.01,8.53-0.02,12.8,0c4.85,0.02,6.59,1.76,6.59,6.63
			C583.36,95.77,583.36,218.04,583.36,248.46z"/>
		<path class="st2" d="M1210,240.97c-18.52,14.71-40.05,16.56-61.71,13.09c-17.87-2.86-31.83-16.88-34.59-34.77
			c-1.85-11.97-0.99-23.78,4.41-34.81c7.68-15.7,21.75-21.98,37.86-25.05c14.92-2.84,29.98-2.27,45.04-1.89
			c7.54,0.19,7.55,0.07,7.54-7.3c0-2.84,0.07-5.69-0.1-8.53c-0.45-7.26-4.2-12.12-10.95-14.79c-6.63-2.62-13.6-2.81-20.54-2.87
			c-14.64-0.12-29.29-0.03-43.94-0.04c-6.01,0-7.38-1.41-7.38-7.57c0-3.13-0.01-6.26,0-9.38c0.02-3.62,2.04-5.67,5.48-5.63
			c20.46,0.27,40.94-0.93,61.38,0.77c7.12,0.59,14.02,2.24,20.51,5.26c13.17,6.14,20.46,16.66,21.04,31.06
			c0.6,14.91,0.23,29.85,0.25,44.78c0.02,21.75,0.01,43.51,0,65.26c0,4.9-1.66,6.54-6.59,6.56c-4.98,0.02-8.16-0.07-13.13,0.04
			c-4.49,0-4.53-2.35-4.53-6.84C1210.05,248.34,1210,240.97,1210,240.97z M1208.56,197.83c0-5.4-0.03-10.81,0.02-16.21
			c0.02-1.6-0.07-2.66-2.19-2.61c-13.91,0.38-27.88-0.85-41.74,1.01c-14.12,1.89-21.47,8.37-23.94,20.93
			c-0.91,4.63-0.88,9.36-0.14,14c1.37,8.58,6.31,14.25,14.83,16.14c17.99,3.99,34.3,0.31,48.83-11.18c3.12-2.47,4.89-5.06,4.43-9.3
			C1208.66,205.81,1208.56,202.1,1208.56,197.83z"/>
		<path class="st2" d="M719.19,178.44c0-11.23,0.03-22.45-0.01-33.68c-0.07-20.34-10.6-34.82-30.09-40.34
			c-17.95-5.09-36.33-4.62-54.49-1.66c-24.26,3.95-36.56,18.61-36.84,42.99c-0.25,21.6-0.21,43.2-0.01,64.8
			c0.2,21.58,10.47,36.4,29.99,41.23c20.36,5.04,41.2,5.08,61.56-0.11c19.07-4.86,29.7-19.69,29.87-39.55
			C719.27,200.89,719.19,189.67,719.19,178.44z M692.1,207.24c-0.1,11.01-5.99,19.24-16.56,21.93c-11.29,2.88-22.84,2.85-34.13,0.06
			c-10.82-2.68-16.52-10.9-16.63-22.86c-0.11-11.98-0.13-44.54,0-56.52c0.16-13.52,6.98-21.65,20.43-23.84
			c10.07-1.64,20.26-1.9,30.21,0.92c10.81,3.06,16.65,11.09,16.68,22.37c0.02,6.22,0,12.45,0,18.67
			C692.11,174.2,692.16,201.01,692.1,207.24z"/>
	</g>
	<path class="st2" d="M346.52,255.56H210.36c-6.9,0-12.5-5.6-12.5-12.5v-99.83c0-6.9,5.6-12.5,12.5-12.5h4.82l-65.04-64.45
		l-60.75,64.45h3.55c6.9,0,12.5,5.6,12.5,12.5s-5.6,12.5-12.5,12.5H60.44c-4.99,0-9.5-2.97-11.48-7.55s-1.04-9.9,2.38-13.53
		l89.4-94.85c2.31-2.45,5.51-3.87,8.88-3.92c3.33-0.06,6.62,1.25,9.01,3.62l95.71,94.85c3.6,3.57,4.69,8.95,2.76,13.64
		c-1.93,4.69-6.49,7.74-11.56,7.74h-22.69v74.83h111.16v-83.12c0-6.9,5.6-12.5,12.5-12.5h8.15L281.2,56.95
		c-4.73-5.02-4.5-12.94,0.53-17.67c5.02-4.73,12.94-4.5,17.67,0.53l93.32,99.06c3.42,3.63,4.35,8.95,2.38,13.53
		c-1.98,4.58-6.49,7.55-11.48,7.55h-24.6v83.12C359.02,249.96,353.43,255.56,346.52,255.56z"/>
</g>
</svg>
