<svg xmlns="http://www.w3.org/2000/svg" viewBox="0 0 301 55"><path d="M99.77 9.64L91 3.93c-8 9.74-25.72 19.29-37.6 21.75a34.45 34.45 0 0 1 7 7.93 115.08 115.08 0 0 0 14.48-6.21v20a4.24 4.24 0 0 0 1.38 3.36 5.44 5.44 0 0 0 3.46 1.14 5.26 5.26 0 0 0 3.59-1.08 4 4 0 0 0 1.59-3.42V21.63l1.66-1c7.68-5.26 10.28-8 11.71-9.5.89.1 2.1.15 2.1-.74 0-.26-.16-.46-.6-.75zM150.47 43.47a4.06 4.06 0 0 0-3.41-4.23h-18.41V20.78h14.1a4.1 4.1 0 0 0 3.55-4.33 4.11 4.11 0 0 0-3.55-4.34h-39.07v8.69h14.14v18.41H99.37v8.5h47.69a4.06 4.06 0 0 0 3.41-4.24zM244.76 23.58h-40.14v8.64h40.14c2.06 0 3.72-2 3.72-4.35s-1.66-4.29-3.72-4.29z" fill="#b33938"/><path d="M210.42 37v-1.2h1.09V37zm0 7.38v-6.21h1.09v6.23z" fill="#6898be"/><path d="M217.57 42.4l1.12.13a2.59 2.59 0 0 1-1 1.48 3.43 3.43 0 0 1-4.08-.31 3.23 3.23 0 0 1-.83-2.36 3.36 3.36 0 0 1 .84-2.44 2.88 2.88 0 0 1 2.17-.87 2.76 2.76 0 0 1 2.1.85 3.3 3.3 0 0 1 .82 2.39v.29h-4.79a2.36 2.36 0 0 0 .6 1.57 1.82 1.82 0 0 0 1.34.54 1.76 1.76 0 0 0 1-.3 2.07 2.07 0 0 0 .71-.97zM214 40.69h3.59a2.11 2.11 0 0 0-.41-1.18 1.69 1.69 0 0 0-1.35-.61 1.73 1.73 0 0 0-1.26.49 1.89 1.89 0 0 0-.57 1.3z" fill="#6ea876"/><path d="M226.93 44.4v-8.6H228v8.6z" fill="#e2cf84"/><path d="M230 44.4v-1.2h1.24v1.2z" fill="#cc8026"/><path d="M231.76 46.82l.21-.9a2 2 0 0 0 .51.08.6.6 0 0 0 .5-.21 2.12 2.12 0 0 0 .16-1.07v-6.55h1.09v6.57a2.94 2.94 0 0 1-.31 1.6 1.46 1.46 0 0 1-1.31.59 3.48 3.48 0 0 1-.85-.11zm1.38-9.82v-1.2h1.09V37z" fill="#b52e22"/><path d="M235.9 46.79v-8.62h1V39a2.42 2.42 0 0 1 .8-.71 2.2 2.2 0 0 1 1.07-.24 2.51 2.51 0 0 1 2.4 1.57 4.21 4.21 0 0 1 .32 1.64 4.13 4.13 0 0 1-.35 1.72 2.62 2.62 0 0 1-1 1.17 2.65 2.65 0 0 1-1.42.41 2.08 2.08 0 0 1-1-.22 2.23 2.23 0 0 1-.71-.56v3zm1-5.47a2.63 2.63 0 0 0 .5 1.78 1.55 1.55 0 0 0 1.21.57 1.59 1.59 0 0 0 1.25-.59 2.8 2.8 0 0 0 .52-1.85 2.68 2.68 0 0 0-.51-1.78 1.56 1.56 0 0 0-1.21-.59 1.59 1.59 0 0 0-1.23.63 2.79 2.79 0 0 0-.54 1.83z" fill="#2c6e9b"/><path d="M265.93 17l-10-7.5v16.37c0 1.26-.11 6.93-2.32 10.76a26 26 0 0 1-8.08 8.24c-1.44 1.36-1.18 3.87.56 5.61s4.33 2.05 5.77.7c7.43-5.71 14.21-14.31 14.21-25V17zM293 25c-3.24 4.17-8.09 9.18-12.88 12.17V17h-10v27a22 22 0 0 1-.27 3c-.57 1.15-.37 3.14 1.85 4.39 1.81 1 3.95.72 4.87-.65a34.19 34.19 0 0 1 2.91-2.34c4.75-3.19 13.37-8.94 18.49-15.78A28.21 28.21 0 0 1 293 25zM279.87 8.81a5.14 5.14 0 0 1-10.27 0 5.14 5.14 0 0 1 10.27 0zM192 16.2h-36.49a4.32 4.32 0 0 0-3 1.16 3.5 3.5 0 0 0-1.35 2.64v10.12a3.33 3.33 0 0 0 1.57 2.94 4.78 4.78 0 0 0 3.38.84q3.85-.42 3.86-3.78v-4.94c0-1.19.47-1.78 1.39-1.78h29.16a.72.72 0 0 1 .54.78v.53q-1.32 7.09-8.87 13.08a38 38 0 0 1-15 7.3c-2.18.49-3.26 1.68-3.26 3.57a3.54 3.54 0 0 0 1.14 2.63 4 4 0 0 0 3.08 1.31 4.35 4.35 0 0 0 1.33-.21 47 47 0 0 0 19.74-9.61q10.91-8.78 10.9-20.12 0-6.46-8.12-6.46zM180.78 8.38a5.14 5.14 0 0 1-10.28 0 5.14 5.14 0 0 1 10.28 0z" fill="#b33938"/><path d="M224.64 44.4v-.89a2.31 2.31 0 0 1-2 1 2.53 2.53 0 0 1-1-.21 1.75 1.75 0 0 1-.72-.51 2.16 2.16 0 0 1-.33-.77 5.44 5.44 0 0 1-.06-1v-3.69h1.06v3.37a5.09 5.09 0 0 0 .07 1.08 1.06 1.06 0 0 0 .42.64 1.32 1.32 0 0 0 .8.23 1.78 1.78 0 0 0 .9-.24 1.26 1.26 0 0 0 .59-.64 3.06 3.06 0 0 0 .18-1.19v-3.25h1.06v6.07z" fill="#7c9e2f"/><path d="M22.74 25.6c5.75-.94 11.63-.43 17.34-1.71a17.6 17.6 0 0 1 3.08 0c.36 0 .56.14.51.63-.26 2.46.29 4.9.35 7.36 0 .61.12 1.21.21 2a32.46 32.46 0 0 0 3.43-3.08.65.65 0 0 0 .14-.61c-.15-.94.37-1.38 1.21-1.47.65-.07 1.44-.24 1.67.63a1.38 1.38 0 0 1-1 1.81A2.93 2.93 0 0 0 48 32.41a13.91 13.91 0 0 1-3.09 3.13.84.84 0 0 0-.39.92c.3 3.48.55 7 .84 10.45.08 1-.31 1.32-1.24 1.38-4.12.29-8.22.64-12.33.94-1.13.08-2.27.1-3.41.08-.76 0-1.29.15-1.34 1a1.39 1.39 0 0 1-.14.42c-.42 1-.85 1.85.46 2.55a1 1 0 0 1 .4 1.36c-.37.59-.93.25-1.39.08-1.5-.55-1.75-1.21-1.09-2.66 1.2-2.61 1.2-2.6-1.62-2.54h-3.42c-.56 0-.9.13-1 .73a3.24 3.24 0 0 1-.4 1 1.18 1.18 0 0 0 .29 1.79 1 1 0 0 1 .35 1.46c-.43.6-1 .3-1.48 0-1.59-.83-1.61-1.07-.63-2.65.42-.67 1.1-1.53.79-2.17-.23-.46-1.36-.17-2.08-.07a77.4 77.4 0 0 1-7.91.5c-.67 0-.94-.2-1-1C7 43.12 6.71 37 6.46 30.83c0-1.41 0-1.36-1.42-1S2.24 31.17.5 31.08c.5-1.27.91-2.48 1.5-3.63 2.73-5.83 5.35-11.71 8.53-17.32C11.85 7.7 12.76 5 14.38 2.72c.91-1.29 1-1.45 2.44-.61C20.31 4.2 24.28 5.22 28 7.24a14.59 14.59 0 0 0-.9-3.53c-.27-.7-.09-1 .64-1.16 2.28-.41 4.56-.82 6.83-1.28.83-.17 1.14.1 1.33.92.75 3.29 1.88 6.48 2.43 9.82a1.51 1.51 0 0 0 .8 1c2.6 1.74 5.35 3.24 8 4.84.25.15.55.23.69.54a3.26 3.26 0 0 1-1.53.76c-4.27 1.33-8.73 1.8-13 2.92-4 1-8 1.88-11.91 3.26a1.91 1.91 0 0 1-1 .5c-.28.05-.54.14-.81.17a3.17 3.17 0 0 0 1.12-.18 1.86 1.86 0 0 1 .6-.17 4.09 4.09 0 0 0 1.45-.05z"/><path d="M22.74 25.6a4.84 4.84 0 0 1-1.56.24c-.32 0-.74.32-.92-.24l1.08-.28c.39.46.96.08 1.4.28z" fill="#e0e0e0"/><path d="M43.22 41.55c.07 1.43.11 2.87.23 4.3 0 .6-.08.85-.73.91-6.3.58-12.6 1.15-18.93 1.42-2.93.12-5.89 0-8.83-.09-1.7-.06-3.38.07-5.07.16-.46 0-.75 0-.74-.61 0-5.53-.41-11-.85-16.53-.2-2.58-.49-2 2-2.46 4-.67 8-.76 12-1.09 6.15-.53 12.32-.87 18.43-1.89 1-.17 1.31.13 1.43 1.12q.84 7.37 1.06 14.76z" fill="#e0feba"/><path d="M3 29.1a30.21 30.21 0 0 1 2.69-6.33C8.4 17.18 11.21 11.63 14 6.07c.26-.52.56-1 .85-1.55.84-1.5.88-1.58 2.51-.86 1.48.64 2.88 1.48 4.32 2.21 3.16 1.6 6.42 3 9.71 4.25a54.26 54.26 0 0 1 11.38 6.7c.53.37 1 .78 1.65 1.23-13.99 3-27.55 7.19-41.42 11.05z" fill="#fe6142"/><path d="M37.23 11.8c-2.44-1.19-4.64-2.27-6.86-3.34a1.6 1.6 0 0 1-.86-1.07c-.3-1-.59-2-1-2.95-.26-.66 0-.92.59-1.08a27.27 27.27 0 0 1 5-.88c.44 0 .77 0 .92.52.84 2.83 1.55 5.68 2.21 8.8z" fill="#fe6042"/><path d="M20.69 26c-.64.37-1.32.11-2 .19.08-.53.43-.43.72-.44.37.25.9-.11 1.28.25z" fill="#101010"/><path d="M20.69 26c-.43-.13-1 .21-1.32-.25l.89-.19c.25.32.63.11.92.24z" fill="#969696"/><path d="M14.73 38c-.17.12-.39.26-.59.41-.76.58-1.49 1.2-2.27 1.74-.47.33-.55.55-.11 1a12.54 12.54 0 0 0 2.39 2.09c1 .62 1 1.13 0 1.7a5.28 5.28 0 0 1-1 .45.59.59 0 0 1-.75-.29.49.49 0 0 1 .17-.68c.71-.5.27-.75-.14-1.13-.76-.69-1.45-1.46-2.18-2.18-.33-.34-.46-.7 0-1 1.15-.85 2.31-1.68 3.49-2.49.32-.3.73-.4.99.38z" fill="#050604"/><path d="M29.69 33.76c1.2 0 2 .71 2 1.69a2.72 2.72 0 0 1-2.43 2 2.3 2.3 0 0 1-1.93-2.06c.03-.91 1.04-1.64 2.36-1.63z" fill="#030403"/><path d="M40.11 35.34a1.9 1.9 0 0 1-1.83 1.84 2.15 2.15 0 0 1-2.05-2 2.18 2.18 0 0 1 1.82-1.79 2 2 0 0 1 2.06 1.95z" fill="#030303"/><path d="M34 44.6a4 4 0 0 1-3.84-4c0-.46 0-1 .61-1s.51.53.51.92a2.92 2.92 0 0 0 1.58 2.82 2.14 2.14 0 0 0 3.26-1.27c.17-.45.28-.91.44-1.36a.42.42 0 0 1 .51-.32c.24.07.32.27.35.51A3.53 3.53 0 0 1 34 44.6z" fill="#070705"/></svg>